#!OML:ASF H:\Terrain\Walking\May29\JustinRory\Justin.ASF
:FULLY-SPECIFIED
:DEGREES
208
root 11.4687 18.074 8.13185 -172.43 -46.836 -179.467
lowerback 4.11955 -2.33824 1.49935
upperback 1.62555 -3.11569 2.38356
thorax -0.583549 -1.59293 1.74646
lowerneck -5.31103 -14.1095 -16.6773
upperneck 8.67651 -18.9044 11.6114
head 6.17269 -9.26288 4.5273
rclavicle 9.93923e-016 -1.35174e-014
rhumerus -4.33937 -5.50059 -73.867
rradius 47.3828
rwrist -22.9178
rhand -31.3618 31.1337
rfingers 7.12502
rthumb -4.63248 1.20438
lclavicle 9.93923e-016 -1.35174e-014
lhumerus -35.5194 8.83982 77.1343
lradius 32.785
lwrist -8.67972
lhand 1.819 38.6297
lfingers 7.12502
lthumb 27.3315 66.6683
rfemur -25.2945 -15.7492 24.4636
rtibia 21.3523
rfoot -7.00631 -21.2897
rtoes 28.3435
lfemur -11.9722 7.8316 -15.2672
ltibia 41.6218
lfoot -16.3816 11.2467
ltoes 4.13078
209
root 11.4745 18.0743 8.1771 -172.609 -47.5745 -179.242
lowerback 3.88987 -2.40791 1.44873
upperback 1.56723 -3.21711 2.5786
thorax -0.499219 -1.6455 1.96969
lowerneck -5.29243 -14.2316 -16.4557
upperneck 8.36306 -19.0425 11.5043
head 6.0575 -9.32824 4.45433
rclavicle -2.127e-014 -1.19271e-014
rhumerus -4.4001 -5.83647 -73.4369
rradius 47.1098
rwrist -22.6578
rhand -31.3835 30.9686
rfingers 7.12502
rthumb -4.65349 1.03974
lclavicle -2.127e-014 -1.19271e-014
lhumerus -35.8967 7.67171 77.9219
lradius 33.8845
lwrist -7.56603
lhand 1.70462 39.529
lfingers 7.12502
lthumb 27.2221 67.5848
rfemur -25.2216 -16.7319 24.7739
rtibia 21.2073
rfoot -6.69509 -21.0421
rtoes 28.0908
lfemur -11.4631 8.21493 -15.0655
ltibia 41.4011
lfoot -16.4822 11.9859
ltoes 3.44543
210
root 11.4863 18.0789 8.22324 -172.278 -48.2058 -179.883
lowerback 3.897 -2.51695 0.737841
upperback 1.44947 -3.37787 2.60863
thorax -0.577934 -1.72501 2.40748
lowerneck -4.93186 -14.2836 -16.3823
upperneck 7.89386 -19.1297 11.5213
head 5.85743 -9.38202 4.47513
rclavicle 3.51849e-014 3.18055e-015
rhumerus -4.75886 -5.92383 -73.1098
rradius 46.9538
rwrist -22.1615
rhand -31.4235 30.9007
rfingers 7.12502
rthumb -4.69208 0.9727
lclavicle 3.51849e-014 3.18055e-015
lhumerus -36.1999 6.91768 78.4528
lradius 34.4608
lwrist -6.85045
lhand 1.69947 39.9261
lfingers 7.12502
lthumb 27.2171 67.9827
rfemur -24.9853 -16.7069 24.0248
rtibia 20.9425
rfoot -6.94107 -21.6621
rtoes 29.4562
lfemur -10.8803 8.42347 -15.5491
ltibia 41.2018
lfoot -16.3788 13.1276
ltoes 4.3211
211
root 11.5076 18.0835 8.25594 -172.448 -48.6823 -179.819
lowerback 3.84994 -2.56868 0.354883
upperback 1.39125 -3.45932 2.72913
thorax -0.57841 -1.76687 2.74772
lowerneck -4.73187 -14.2176 -16.5797
upperneck 7.64813 -19.0842 11.9308
head 5.80379 -9.35636 4.65154
rclavicle -2.98177e-014 3.10104e-014
rhumerus -4.94363 -6.26405 -72.9416
rradius 46.7288
rwrist -21.9874
rhand -31.596 31.1575
rfingers 7.12502
rthumb -4.85861 1.23317
lclavicle -2.98177e-014 3.10104e-014
lhumerus -36.101 7.14049 78.4668
lradius 34.2725
lwrist -6.99707
lhand 2.06449 39.523
lfingers 7.12502
lthumb 27.5663 67.5243
rfemur -24.7121 -16.2874 23.8998
rtibia 20.6218
rfoot -6.69892 -22.5525
rtoes 28.5073
lfemur -10.3664 8.98312 -15.4404
ltibia 41.0168
lfoot -16.3638 13.8432
ltoes 9.18022
212
root 11.5353 18.075 8.28562 -173.645 -49.2037 -178.212
lowerback 3.67183 -2.61561 0.970907
upperback 1.34208 -3.51623 3.14545
thorax -0.537031 -1.80203 2.82646
lowerneck -4.96673 -14.1505 -16.9337
upperneck 7.71907 -18.98 12.3064
head 5.92379 -9.28956 4.8081
rclavicle 1.39149e-014 1.74931e-014
rhumerus -4.6842 -7.05665 -72.7884
rradius 45.8108
rwrist -22.0512
rhand -32.0238 31.5933
rfingers 7.12502
rthumb -5.27166 1.67883
lclavicle 1.39149e-014 1.74931e-014
lhumerus -35.8046 7.87318 78.4092
lradius 33.9612
lwrist -7.62573
lhand 2.39992 39.0957
lfingers 7.12502
lthumb 27.887 67.0454
rfemur -24.5716 -15.6576 24.9509
rtibia 20.3005
rfoot -6.50845 -23.5202
rtoes 28.0387
lfemur -10.0667 9.83523 -14.1645
ltibia 40.8038
lfoot -16.1412 14.3415
ltoes 14.1134
213
root 11.5567 18.0613 8.32798 -174.519 -49.866 -177.023
lowerback 3.45538 -2.68556 1.49959
upperback 1.25764 -3.60548 3.42071
thorax -0.513243 -1.85082 2.80922
lowerneck -5.1293 -14.1994 -17.0316
upperneck 7.78585 -19.029 12.3879
head 5.99671 -9.30539 4.82501
rclavicle -2.55438e-014 -4.69132e-014
rhumerus -4.54542 -8.2021 -72.6595
rradius 44.3056
rwrist -21.8274
rhand -32.7687 31.4241
rfingers 7.12502
rthumb -5.9909 1.52875
lclavicle -2.55438e-014 -4.69132e-014
lhumerus -35.6323 7.99618 78.6017
lradius 34.058
lwrist -7.89359
lhand 2.47711 38.9655
lfingers 7.12502
lthumb 27.9608 66.9033
rfemur -24.5771 -15.0048 25.4563
rtibia 20.1666
rfoot -7.27053 -24.5458
rtoes 30.7086
lfemur -9.81199 10.5637 -13.2779
ltibia 40.5056
lfoot -15.5578 15.4311
ltoes 13.4707
214
root 11.5617 18.0633 8.38692 -174.469 -50.7145 -177.13
lowerback 3.1803 -2.76137 1.50006
upperback 1.21175 -3.70756 3.30918
thorax -0.410533 -1.89809 2.68363
lowerneck -4.89786 -14.2198 -16.9348
upperneck 7.47837 -19.1234 12.7615
head 5.90685 -9.34449 4.93573
rclavicle -8.13029e-014 6.36111e-015
rhumerus -4.80779 -8.86452 -72.5925
rradius 44.3139
rwrist -21.3072
rhand -31.3818 32.3203
rfingers 7.12502
rthumb -4.65185 2.39135
lclavicle -8.13029e-014 6.36111e-015
lhumerus -35.4225 7.45234 78.8566
lradius 34.2885
lwrist -7.69807
lhand 2.4436 38.681
lfingers 7.12502
lthumb 27.9288 66.6239
rfemur -24.6048 -15.5299 25.1891
rtibia 20.0782
rfoot -7.26011 -24.8122
rtoes 31.6706
lfemur -9.43281 11.0486 -13.4344
ltibia 40.0708
lfoot -15.4804 16.2842
ltoes 10.5018
215
root 11.5606 18.0692 8.45121 -174.236 -51.705 -177.586
lowerback 3.11221 -2.88266 1.34869
upperback 1.09132 -3.86206 3.17252
thorax -0.490472 -1.97035 2.63269
lowerneck -4.60262 -14.1998 -16.8214
upperneck 7.14946 -19.1521 13.001
head 5.77462 -9.36088 5.01841
rclavicle -7.49418e-014 1.82882e-014
rhumerus -6.23695 -9.32255 -72.3453
rradius 45.0556
rwrist -20.3825
rhand -31.5532 31.7663
rfingers 7.12502
rthumb -4.81732 1.84102
lclavicle -7.49418e-014 1.82882e-014
lhumerus -35.2389 7.03806 79.1622
lradius 34.3266
lwrist -7.57062
lhand 2.24907 38.4342
lfingers 7.12502
lthumb 27.7428 66.4073
rfemur -24.6396 -16.9382 24.8635
rtibia 20.0686
rfoot -6.41993 -24.4919
rtoes 30.2033
lfemur -8.91902 11.3508 -13.8478
ltibia 39.5255
lfoot -15.7474 16.7504
ltoes 10.3953
216
root 11.5659 18.0763 8.50808 -174.06 -52.6032 -177.791
lowerback 3.0279 -2.98776 1.16543
upperback 0.853213 -3.99588 3.19184
thorax -0.66932 -2.03367 2.76258
lowerneck -4.55897 -14.2659 -16.801
upperneck 7.26049 -19.2522 12.8864
head 5.80221 -9.41526 4.96649
rclavicle 6.64935e-014 -3.97569e-015
rhumerus -7.25386 -9.69985 -71.9703
rradius 45.2153
rwrist -19.5798
rhand -31.5172 31.6081
rfingers 7.12502
rthumb -4.78258 1.68208
lclavicle 6.64935e-014 -3.97569e-015
lhumerus -35.2391 6.72249 79.5935
lradius 34.521
lwrist -7.51407
lhand 1.99663 38.5783
lfingers 7.12502
lthumb 27.5014 66.5899
rfemur -24.7834 -17.7764 24.6317
rtibia 20.0763
rfoot -6.23824 -24.5333
rtoes 29.5685
lfemur -8.60433 11.7808 -14.1069
ltibia 38.9777
lfoot -15.5743 17.2943
ltoes 11.4474
217
root 11.5775 18.079 8.56191 -173.798 -53.3125 -177.949
lowerback 2.81169 -3.03517 0.82222
upperback 0.606495 -4.06256 3.27156
thorax -0.7697 -2.06372 3.03365
lowerneck -4.51305 -14.3503 -16.8236
upperneck 7.31493 -19.3595 12.7278
head 5.81213 -9.47558 4.90722
rclavicle -1.2921e-015 2.8625e-014
rhumerus -7.86919 -10.2227 -71.5766
rradius 44.8031
rwrist -18.7525
rhand -32.513 32.5838
rfingers 7.12502
rthumb -5.74402 2.68165
lclavicle -1.2921e-015 2.8625e-014
lhumerus -35.3524 6.32692 80.112
lradius 35.1848
lwrist -7.24306
lhand 1.98031 38.9962
lfingers 7.12502
lthumb 27.4858 67.0104
rfemur -24.8932 -17.8414 24.3287
rtibia 19.9146
rfoot -6.52386 -25.0871
rtoes 30.2802
lfemur -8.55345 12.4623 -14.3463
ltibia 38.5599
lfoot -15.2575 17.5911
ltoes 13.2523
218
root 11.5958 18.0613 8.62351 -173.982 -53.9867 -177.589
lowerback 2.65244 -3.06456 0.854653
upperback 0.428724 -4.09861 3.34462
thorax -0.858401 -2.08042 3.08878
lowerneck -4.51289 -14.3666 -16.7242
upperneck 7.30849 -19.3807 12.6597
head 5.79608 -9.4867 4.87075
rclavicle 8.34896e-014 2.54444e-014
rhumerus -8.41743 -11.0108 -71.3328
rradius 44.4206
rwrist -17.9794
rhand -32.962 32.5186
rfingers 7.12502
rthumb -6.17751 2.6287
lclavicle 8.34896e-014 2.54444e-014
lhumerus -35.3957 5.65787 80.5472
lradius 36.1044
lwrist -6.80048
lhand 2.28222 39.8262
lfingers 7.12502
lthumb 27.7745 67.7942
rfemur -24.8781 -17.2815 24.1723
rtibia 19.5603
rfoot -7.04823 -26.1752
rtoes 32.2213
lfemur -8.58163 13.1859 -14.2466
ltibia 38.1914
lfoot -14.8094 17.6938
ltoes 14.1862
219
root 11.6118 18.0333 8.69011 -174.736 -54.8345 -176.586
lowerback 2.44199 -3.12974 1.41636
upperback 0.335401 -4.17851 3.44806
thorax -0.864856 -2.12371 2.87542
lowerneck -4.62948 -14.3458 -16.8574
upperneck 7.52312 -19.386 12.9135
head 5.92373 -9.47805 4.95041
rclavicle 1.09332e-015 2.38542e-014
rhumerus -8.90443 -11.7338 -71.1858
rradius 44.0326
rwrist -17.5462
rhand -33.7189 31.7682
rfingers 7.12502
rthumb -6.90819 1.90092
lclavicle 1.09332e-015 2.38542e-014
lhumerus -35.2426 4.87431 80.8931
lradius 36.8194
lwrist -6.3937
lhand 2.59372 40.3708
lfingers 7.12502
lthumb 28.0723 68.2903
rfemur -24.9304 -16.9906 24.4176
rtibia 19.3774
rfoot -7.61472 -27.1522
rtoes 33.7543
lfemur -8.62158 13.7475 -13.7905
ltibia 37.7563
lfoot -14.3089 18.1692
ltoes 9.84454
220
root 11.6242 18.0216 8.75091 -174.887 -55.6703 -176.394
lowerback 2.1974 -3.2473 1.32325
upperback 0.271039 -4.34538 3.55668
thorax -0.772258 -2.20805 3.02986
lowerneck -4.75531 -14.3182 -17.2543
upperneck 7.67493 -19.3521 13.2002
head 6.05711 -9.45395 5.08189
rclavicle 6.14245e-014 -1.35174e-014
rhumerus -9.13786 -12.029 -70.9124
rradius 43.3449
rwrist -17.457
rhand -34.5962 31.1131
rfingers 7.12502
rthumb -7.75502 1.27534
lclavicle 6.14245e-014 -1.35174e-014
lhumerus -35.0789 4.62487 81.2432
lradius 37.2583
lwrist -6.22625
lhand 2.63323 39.487
lfingers 7.12502
lthumb 28.11 67.4003
rfemur -25.014 -17.0777 24.2391
rtibia 19.3847
rfoot -7.94302 -27.8378
rtoes 34.1989
lfemur -8.50089 14.2055 -13.8864
ltibia 37.0839
lfoot -14.2911 19.031
ltoes 0.448938
221
root 11.6424 18.007 8.81287 -174.618 -56.369 -176.699
lowerback 2.03018 -3.30193 0.900266
upperback 0.153802 -4.424 3.53385
thorax -0.765813 -2.24356 3.23683
lowerneck -4.54439 -14.2606 -17.249
upperneck 7.47486 -19.295 13.2694
head 5.95804 -9.43384 5.13093
rclavicle 8.12035e-014 -2.78299e-014
rhumerus -9.3471 -12.9295 -70.7596
rradius 42.4804
rwrist -17.2422
rhand -34.8174 30.7488
rfingers 7.12502
rthumb -7.96854 0.918993
lclavicle 8.12035e-014 -2.78299e-014
lhumerus -35.0606 4.35132 81.4434
lradius 37.7002
lwrist -6.17158
lhand 2.63379 38.2197
lfingers 7.12502
lthumb 28.1106 66.1329
rfemur -25.284 -17.1725 23.8069
rtibia 19.6182
rfoot -7.88502 -28.4184
rtoes 34.0908
lfemur -8.26599 14.6838 -14.2852
ltibia 36.2115
lfoot -14.8233 19.4509
ltoes -7.08674
